PathFileType	4	(X/Y/Z)	C:\Users\°ÂÌØÂü\Desktop\20210112\bx_n_10_501-Unnamed.trc
DataRate	CameraRate	NumFrames	NumMarkers	Units	OrigDataRate	OrigDataStartFrame	OrigNumFrames
50.00	50.00	       4	0	mm	50.00	273	       436
Frame#	Time	
		

273	5.440	-240.11511	117.07922	1526.10608	-453.33563	273.81165	1313.25293	-769.03723	232.55371	1032.22815	-741.49524	-13.10621	805.22699	-948.24884	81.03235	1084.28467	-840.33643	272.80029	731.69067	-844.69769	249.20975	628.09271	-830.13257	246.13049	564.89825	-766.90991	204.57668	536.78992	-850.86938	258.19534	484.62195	-517.96893	-72.81252	142.65678	-549.99707	-28.81124	162.54236	-793.51465	35.96999	172.26773				-598.40210	25.96638	166.27809	-673.14319	51.45584	161.20763	-719.77429	156.98471	222.32295	-798.19775	179.31685	181.88673	-773.18890	229.57343	202.07307	-594.30591	220.31389	173.96941	-882.68195	295.99457	144.47002	-557.69031	255.47148	163.81203	-661.30762	299.19940	156.37329	-624.67346	307.56128	157.86888	-528.10303	304.10632	146.13173	-440.14352	-65.69098	1309.98682	-726.07483	66.03166	219.12347	-832.19733	-54.58770	471.86746	-761.64648	-23.52482	201.98686	-875.95386	-78.88910	141.13333	-827.88147	-80.74155	862.72705										-791.66144	142.01933	571.54352	-676.07196	175.21371	161.91330	-607.22034	-76.32927	156.89630	-648.61725	-68.96368	161.02977				-861.26788	277.92856	865.18170	-751.95422	12.60416	524.75610				-826.21033	-71.31815	746.21234	-813.39899	-43.18206	606.78076	-810.73260	-40.01028	559.04608	
274	5.460	-236.07022	117.17091	1516.81152	-449.76474	273.58316	1305.92053	-770.61127	233.42787	1030.96118	-744.08008	-12.32411	804.68964	-949.79340	81.66241	1083.92639	-841.66901	272.55927	731.19562	-846.01398	249.64131	627.55774	-831.36719	246.44238	564.40613	-768.32037	204.90410	536.48840	-852.21466	259.00342	484.17953	-517.89130	-72.75411	142.58702	-550.13672	-28.73237	162.55827	-793.34113	36.13003	172.38304	-751.83453	208.47606	816.73810	-598.36896	26.02155	166.19528	-672.86237	51.54477	161.35396	-719.80859	157.21742	222.61469	-798.23248	179.63948	181.77437	-773.30566	229.58841	201.89697	-594.07813	220.22058	174.25343	-882.63141	295.83353	144.51852	-557.93701	255.52554	163.88744	-661.16772	299.29190	156.27426	-624.62238	307.74344	157.71243	-528.01398	304.09464	146.27768	-436.26910	-64.80358	1302.09766	-726.60931	65.54400	218.55385	-832.99805	-54.33614	471.48032	-761.52277	-23.44677	201.94527	-875.87347	-78.77656	141.15236	-830.52380	-80.28059	862.16675										-793.59705	142.97586	570.73322	-676.19958	175.24451	161.99699	-607.15637	-76.32319	156.95538	-648.32733	-68.95746	160.75198				-863.70911	278.99673	864.96075	-752.71582	12.91707	524.76123				-828.40820	-70.87119	745.73743	-814.36029	-42.63901	606.24060	-811.28485	-40.06791	559.23230	
275	5.480	-232.04701	117.34897	1507.40088	-446.33725	273.67737	1298.77686	-772.87665	233.37657	1029.11865	-746.61926	-11.11409	804.33478	-952.26996	82.32420	1085.01599	-843.85168	273.19296	730.66119	-847.79053	250.11104	626.91815	-832.98004	246.93013	563.76312	-769.67487	205.09175	536.33832	-853.51251	259.16550	483.60495	-517.81128	-72.60328	142.50130	-550.13672	-28.73237	162.55827	-793.49573	36.01681	172.33163	-754.38702	209.04008	815.96637	-598.31561	26.11359	166.26851	-673.04541	51.80990	161.24493	-719.82373	157.21516	222.82741	-798.49255	179.97772	181.73709	-773.39331	229.50809	201.92107	-594.17499	220.26418	174.05917	-882.74542	295.92569	144.48575	-558.02655	255.55261	163.68358	-661.32245	299.30087	156.01701	-624.59363	307.72211	157.73778	-527.94189	304.08762	146.40671	-432.73770	-63.49586	1294.27295	-726.54919	65.89762	218.51166	-834.37994	-54.11052	471.10190	-761.64648	-23.52482	201.98686	-875.96130	-78.84709	141.39201	-833.07336	-80.02641	861.57410										-794.79633	142.23953	571.19110	-676.19958	175.24451	161.99699	-607.17297	-76.28176	157.03876	-648.33618	-68.80737	160.70758				-865.70197	278.94363	864.00525	-754.36261	13.29891	524.22229				-830.30737	-70.95084	745.38635	-816.32288	-42.66196	606.19562	-813.16675	-39.97482	558.93549	
276	5.500	-228.59654	117.42983	1498.19275	-443.27487	273.09180	1291.13501	-775.05872	233.96278	1027.59766	-748.60272	-10.85174	804.12317	-953.38849	82.77363	1085.32007	-845.59808	274.54822	730.26660	-849.34290	250.09122	626.42285	-833.85693	246.84924	563.20636	-771.01813	205.71709	536.39630	-854.31390	259.23361	483.41904	-517.95032	-72.58363	142.55840	-550.22113	-28.58105	162.39154	-793.57202	36.08517	172.09778	-756.61987	209.53761	815.79834	-598.40582	26.16540	166.22575	-672.94733	51.65615	161.24573	-719.89624	157.21857	222.92967	-798.17603	179.52756	181.65010	-773.29181	229.50334	201.73228	-594.07214	220.20055	174.25468	-882.81335	295.88187	144.36121	-558.13031	255.71793	163.81563	-661.19104	299.33292	156.36971	-624.27527	307.80231	157.56870	-528.05103	304.07257	146.21132	-429.14139	-62.39626	1286.93921	-726.77582	65.69277	218.32202	-834.88605	-54.06649	471.18326	-761.56158	-23.46875	201.87413	-875.97473	-78.84007	141.37231	-835.32855	-79.89377	861.22961	-765.88593	-12.57423	1005.70380							-795.58801	142.73877	570.79413	-675.88916	174.96741	162.26176	-607.22192	-76.17992	157.06757	-648.19971	-68.71635	160.79443				-868.08978	279.85513	863.30865	-755.44135	13.67680	524.29260				-832.16119	-70.24768	745.00415	-817.81952	-42.28301	606.14978	-814.11938	-39.42873	558.53912	
